<svg width="42" height="42" viewBox="0 0 42 42" fill="none" xmlns="http://www.w3.org/2000/svg">
<g clip-path="url(#clip0)">
<path d="M42 0H0V42H42V0Z" fill="white"/>
<path d="M21 42C32.598 42 42 32.598 42 21C42 9.40202 32.598 0 21 0C9.40202 0 0 9.40202 0 21C0 32.598 9.40202 42 21 42Z" fill="#0047FF"/>
<path d="M12.1203 14.9074C15.163 14.9074 17.6296 12.4408 17.6296 9.39814C17.6296 6.35546 15.163 3.88889 12.1203 3.88889C9.07766 3.88889 6.61108 6.35546 6.61108 9.39814C6.61108 12.4408 9.07766 14.9074 12.1203 14.9074Z" fill="#608CFF"/>
<path d="M30.787 14.9074C33.8297 14.9074 36.2963 12.4408 36.2963 9.39814C36.2963 6.35546 33.8297 3.88889 30.787 3.88889C27.7444 3.88889 25.2778 6.35546 25.2778 9.39814C25.2778 12.4408 27.7444 14.9074 30.787 14.9074Z" fill="#608CFF"/>
<path d="M20.9352 41.6111C23.9779 41.6111 26.4445 39.1445 26.4445 36.1018C26.4445 33.0592 23.9779 30.5926 20.9352 30.5926C17.8925 30.5926 15.426 33.0592 15.426 36.1018C15.426 39.1445 17.8925 41.6111 20.9352 41.6111Z" fill="#608CFF"/>
<path d="M18.1061 39.6667H24.0029L30.6249 16.5143H30.8826L37.4884 39.6667H43.3853L52.6978 6.67004H46.2692L40.324 30.9342H40.0341L33.6699 6.67004H27.8214L21.4734 30.9181H21.1673L15.2222 6.67004H8.79358L18.1061 39.6667Z" fill="white"/>
</g>
<defs>
<clipPath id="clip0">
<rect width="42" height="42" fill="white"/>
</clipPath>
</defs>
</svg>
